inDegrees=no
num_controls=7
num_derivatives=13
num_iterations=136
num_multipliers=7
num_parameters=0
num_slacks=7
num_states=26
objective=0.543222
objective_accelerations=0.064348
objective_balance=0.003423
objective_effort=0.047673
objective_height=0.418613
objective_ligament=0.009166
solver_duration=1464.523015
status=Solve_Succeeded
success=true
DataType=double
version=3
OpenSimVersion=4.5
endheader
time	/jointset/ground_pelvis/pelvis_tilt/value	/jointset/ground_pelvis/pelvis_tx/value	/jointset/ground_pelvis/pelvis_ty/value	/jointset/hip_r/hip_flexion_r/value	/jointset/hip_r/hip_adduction_r/value	/jointset/hip_r/hip_rotation_r/value	/jointset/back/lumbar_extension/value	/jointset/patellofemoral_r/patellar_flexion_r/value	/jointset/knee_r/knee_flexion_r/value	/jointset/knee_r/knee_adduction_r/value	/jointset/knee_r/knee_rotation_r/value	/jointset/ankle_r/ankle_angle_r/value	/jointset/subtalar_r/subtalar_angle_r/value	/jointset/ground_pelvis/pelvis_tilt/speed	/jointset/ground_pelvis/pelvis_tx/speed	/jointset/ground_pelvis/pelvis_ty/speed	/jointset/hip_r/hip_flexion_r/speed	/jointset/hip_r/hip_adduction_r/speed	/jointset/hip_r/hip_rotation_r/speed	/jointset/back/lumbar_extension/speed	/jointset/patellofemoral_r/patellar_flexion_r/speed	/jointset/knee_r/knee_flexion_r/speed	/jointset/knee_r/knee_adduction_r/speed	/jointset/knee_r/knee_rotation_r/speed	/jointset/ankle_r/ankle_angle_r/speed	/jointset/subtalar_r/subtalar_angle_r/speed	/forceset/tau_hip_flexion_r	/forceset/tau_hip_adduction_r	/forceset/tau_hip_rotation_r	/forceset/tau_knee_flexion_r	/forceset/tau_ankle_angle_r	/forceset/tau_subtalar_angle_r	/forceset/tau_lumbar_extension	lambda_cid13_p0	lambda_cid14_p0	lambda_cid14_p1	lambda_cid14_p2	lambda_cid14_p3	lambda_cid14_p4	lambda_cid14_p5	/jointset/ground_pelvis/pelvis_tilt/accel	/jointset/ground_pelvis/pelvis_tx/accel	/jointset/ground_pelvis/pelvis_ty/accel	/jointset/hip_r/hip_flexion_r/accel	/jointset/hip_r/hip_adduction_r/accel	/jointset/hip_r/hip_rotation_r/accel	/jointset/back/lumbar_extension/accel	/jointset/patellofemoral_r/patellar_flexion_r/accel	/jointset/knee_r/knee_flexion_r/accel	/jointset/knee_r/knee_adduction_r/accel	/jointset/knee_r/knee_rotation_r/accel	/jointset/ankle_r/ankle_angle_r/accel	/jointset/subtalar_r/subtalar_angle_r/accel	gamma_cid13_p0	gamma_cid14_p0	gamma_cid14_p1	gamma_cid14_p2	gamma_cid14_p3	gamma_cid14_p4	gamma_cid14_p5
0	-0.006327273877069784	0.09618220371604853	0.9427226287187268	0.1762555222360518	-0.2322046643735329	-0.2602742976295833	-0.038598046466844	0.07317863873451184	0.07317863873451017	0.1745326571197105	0.1732264400824255	0.03247278518263602	-0.003526307844549897	0	0	0	0	0	0	0	0	0	0	0	0	0	0.2358724407795398	-0.1659992223391629	-0.04423056590388849	-0.4085936549517271	0.393448340587743	-0.1411774298653029	-0.1327311449633401	-39.03864504791294	76.68130924166132	-38.16250867383049	-4.563610507730196	-26.56155351470005	-676.0594629038646	60.83104875385872	-2.74191994530107	-1.510601404158209	-0.7589860007025229	11.52396551834703	0.4079540819715123	2.835003019146227	-5.407139938322397	11.39483327821413	11.39483327821383	-3.873230098066064	0.3413286428085472	3.685564266372389	1.261139183885863	1.504428189235265e-07	8.246912648554291e-08	-9.962712106616183e-07	3.341117747235851e-07	5.816002914305426e-08	1.140333915672096e-08	-5.290568905107394e-07
0.01	-0.006455513382967076	0.0961074891721822	0.9426861481118004	0.1768135527562129	-0.2321827828490576	-0.2601228339807456	-0.0388725112877937	0.0737326538464579	0.0737326538464564	0.1743390874326985	0.173229320448563	0.03265243557550109	-0.003462869821534369	-0.02551020435420834	-0.01489841268043667	-0.007283669162137519	0.1111125770264584	0.004306031954533585	0.03013744352160607	-0.05454364818550867	0.1103377184359331	0.1103377184359367	-0.03842679650555404	0.0005870948527760302	0.03573770101409864	0.0125712868599031	0.2290207622135333	-0.1742069540113893	-0.04242691026790307	-0.3992289731338663	0.3779841698920091	-0.1281675997069929	-0.1273071266691889	-39.05716794252641	72.20293720426487	-33.35888704492973	-5.258145945780234	-24.02860229574879	-676.296871924857	69.60478834990352	-2.434906345552221	-1.472775154147935	-0.7111872598253675	10.83088391553498	0.4312917149642529	3.079901483823898	-5.425579857960755	10.78341544476517	10.78341544476576	-3.784453053406216	-0.08085265439579185	3.489041810557815	1.237557342344213	2.066200414212029e-07	1.001178943848663e-07	-1.34597020446595e-06	3.328205412661272e-07	9.792485475728962e-08	-2.102131155775665e-07	-6.164498906774019e-07
0.02	-0.006834722065421803	0.09588512771067911	0.9425772048360814	0.1784679050707853	-0.2321199682124826	-0.2596746386036598	-0.03968193311045768	0.0753760810064588	0.0753760810064586	0.1737698400553069	0.1732384212510482	0.03318369673683313	-0.00327723214885947	-0.05019383531127326	-0.02952938352735349	-0.01449253375850495	0.2192643588825069	0.008186622419866811	0.059346345649456	-0.1069914003428396	0.2178824096111579	0.217882409611161	-0.07513553807535402	0.001244087269235219	0.07032215369336564	0.02443992993187344	0.2221690836475229	-0.1824146856836179	-0.04062325463191168	-0.3898642913160082	0.3625199991962743	-0.1151577695486855	-0.12188310837504	-39.11192543345577	67.82831999667374	-28.56369733126904	-5.920950841198353	-21.67940125403125	-674.9106458463297	78.07688217287451	-2.576605265872357	-1.457113037454273	-0.7440250875485039	10.93180648426507	0.3228657841314485	2.649294740394995	-4.987960732686836	10.83622782607249	10.83622782607135	-3.529619110915271	0.3553081555451816	3.454914599406028	1.120610426299311	2.627972639188794e-07	1.177666622841898e-07	-1.695669198270282e-06	3.315293078086692e-07	1.37689680371525e-07	-4.31829570311854e-07	-7.038428908440643e-07
0.03	-0.007457416694766731	0.0955178473547573	0.9423961689086107	0.1811899274367425	-0.2320204446954762	-0.2589416351895096	-0.04100461597520982	0.07808168125562748	0.07808168125562602	0.1728423668961384	0.1732566858176783	0.03405513333787965	-0.002976294327318505	-0.0742213895509508	-0.04387418517169635	-0.02172789236746879	0.3246380636626	0.01166746610463672	0.08709090049749475	-0.1571881059166484	0.3227371188120741	0.3227371188120837	-0.1100764198948976	0.002370413514450731	0.1037649824794816	0.03565374382407363	0.2148901036710214	-0.183447369256049	-0.03866901118552207	-0.3813496066568661	0.3493649834789299	-0.1081988048007511	-0.1161771531168253	-39.20142488552793	63.94795064226243	-26.29760440181379	-6.194550267835102	-19.52154673470335	-673.8138725109487	81.34021854458607	-2.297247059706822	-1.415260656613962	-0.715364603674414	10.26486395885623	0.352905314033731	2.812615577654828	-4.981965466047621	10.2349614690671	10.23496146906867	-3.434155433647569	-0.01434533213323409	3.258992392192302	1.107452454017458	2.923225766517138e-07	1.258678459517685e-07	-1.870151446185835e-06	3.754357753677895e-07	1.607578112539983e-07	-5.728785219267457e-07	-7.950897881375415e-07
0.04	-0.008316670177847938	0.09500869959665401	0.9421423647238294	0.1849506291472958	-0.2318876704109456	-0.257936070282752	-0.04281855389496404	0.08182080239720191	0.0818208023972018	0.171573918375544	0.1732850856085271	0.03525500330158251	-0.00256608125018812	-0.09750560605828312	-0.05790286396364786	-0.02904618522058584	0.4270002278016823	0.01483677592476426	0.1138586441713945	-0.2052424113432422	0.4245865880916277	0.4245865880916452	-0.1433306103613891	0.003271132113947899	0.1360088262247145	0.04629498104975761	0.2076111236945372	-0.1844800528284772	-0.03671476773914577	-0.3728349219977061	0.3362099677615931	-0.1012398400528116	-0.1104711978586038	-39.32350993958626	60.16171214081535	-24.03502735997704	-6.444743906504931	-17.5327787955705	-671.2541296586838	84.33217191517976	-2.427937719403291	-1.393888466976035	-0.7606119363791445	10.32949835606292	0.2605590112029825	2.453932505567179	-4.559480703243832	10.23517984179996	10.23517984179912	-3.192280840304872	0.3101866264015152	3.215117591229368	1.006095092996071	3.21298365471871e-07	1.337721722125072e-07	-2.041020977691309e-06	4.202741542880765e-07	1.834816803894249e-07	-7.122662879103096e-07	-8.864161472274477e-07
0.05	-0.009405806049754217	0.09436100129650049	0.9418146252562594	0.1897212001735548	-0.2317246855331362	-0.2566702174952911	-0.04510175706490787	0.08656494038915638	0.08656494038915667	0.1699812719909769	0.1733238381703109	0.0367719873096155	-0.002052019684941209	-0.1202007307701091	-0.07156442453084881	-0.0365364534017817	0.5266007804531682	0.01771505738015976	0.139133616547738	-0.2510567449225677	0.5237538032755615	0.5237538032755837	-0.174910310596579	0.004427899375934747	0.1672152362078932	0.05643816505891654	0.2005923061572609	-0.1744543127075365	-0.03493830508431661	-0.3664184650704038	0.3283633046123989	-0.1046656211887748	-0.1049514673353988	-39.47569456114572	57.66960893326213	-26.03292578458333	-6.04200521542407	-16.30190680725225	-669.0457442217604	78.72545533535364	-2.172134913084157	-1.341397241282811	-0.7485896048628882	9.69837891963352	0.2944676691204955	2.537653765217478	-4.541188026796946	9.684346809329316	9.684346809330565	-3.097837037146252	0.01084758760142776	3.047555767590675	1.00628040410212	3.106819089086801e-07	1.247350323575396e-07	-1.948122175539412e-06	4.460990381710419e-07	1.849507267083395e-07	-7.81432541649028e-07	-8.975302458867185e-07
